<svg width="3000" height="3000" viewBox="0 0 3000 3000" fill="none" xmlns="http://www.w3.org/2000/svg">
<path d="M2251.15 849.55L1499.99 424.794L2235.84 0L2986.99 424.757L2251.15 849.55ZM2979.31 1287.59L2243.47 1712.38L2251.16 849.551L2987 424.759L2979.31 1287.59Z" fill="#009966"/>
<path d="M28.314 1274.38L13 424.83L748.84 0.0377402L1499.99 424.794L28.314 1274.38Z" fill="#007A55"/>
<path d="M1507.63 2137.17L1499.94 3000L2235.79 2575.21L2243.47 1712.38L1507.63 2137.17Z" fill="#00D492"/>
<path d="M779.47 1699.14L28.314 1274.38L764.155 849.587L1515.31 1274.34L779.47 1699.14ZM1507.63 2137.17L771.788 2561.97L779.479 1699.14L1515.32 1274.35L1507.63 2137.17Z" fill="#00BC7D"/>
</svg>
